<?xml version="1.0" encoding="UTF-8" standalone="no"?>
<svg
   xmlns:dc="http://purl.org/dc/elements/1.1/"
   xmlns:cc="http://creativecommons.org/ns#"
   xmlns:rdf="http://www.w3.org/1999/02/22-rdf-syntax-ns#"
   xmlns:svg="http://www.w3.org/2000/svg"
   xmlns="http://www.w3.org/2000/svg"
   xmlns:sodipodi="http://sodipodi.sourceforge.net/DTD/sodipodi-0.dtd"
   xmlns:inkscape="http://www.inkscape.org/namespaces/inkscape"
   width="4.3225145mm"
   height="4.7055993mm"
   viewBox="0 0 15.315996 16.673383"
   id="svg2"
   version="1.1"
   inkscape:version="1.0 (4035a4fb49, 2020-05-01)"
   sodipodi:docname="Bicycle_park.svg">
  <defs
     id="defs4" />
  <sodipodi:namedview
     id="base"
     pagecolor="#ffffff"
     bordercolor="#666666"
     borderopacity="1.0"
     inkscape:pageopacity="0.0"
     inkscape:pageshadow="2"
     inkscape:zoom="22.4"
     inkscape:cx="5.3795092"
     inkscape:cy="10.788886"
     inkscape:document-units="px"
     inkscape:current-layer="g4158"
     showgrid="false"
     fit-margin-top="0"
     fit-margin-left="0"
     fit-margin-right="0"
     fit-margin-bottom="0"
     inkscape:window-width="1920"
     inkscape:window-height="1001"
     inkscape:window-x="-9"
     inkscape:window-y="1341"
     inkscape:window-maximized="1"
     inkscape:document-rotation="0" />
  <metadata
     id="metadata7">
    <rdf:RDF>
      <cc:Work
         rdf:about="">
        <dc:format>image/svg+xml</dc:format>
        <dc:type
           rdf:resource="http://purl.org/dc/dcmitype/StillImage" />
        <dc:title />
      </cc:Work>
    </rdf:RDF>
  </metadata>
  <g
     inkscape:label="Calque 1"
     inkscape:groupmode="layer"
     id="layer1"
     transform="translate(-452.59469,-496.29602)">
    <g
       id="g4158">
      <path
         style="fill:#ffffff;fill-opacity:1"
         id="path4804"
         inkscape:connector-curvature="0"
         sodipodi:nodetypes="ccccccccccccsssscccssscccccssssscccsssc"
         d="m 463.00891,504.25505 c -0.73646,-0.0109 -0.73646,1.09974 0,1.08928 l 0.54465,0 0,0.77449 -2.99336,1.7105 -0.55956,-1.3957 0.77862,0 c 0.73646,0.0109 0.73646,-1.09974 0,-1.08929 l -2.20831,0 c -0.73646,-0.0109 -0.73646,1.09975 0,1.08929 l 0.25533,0 0.47014,1.17436 c -0.20773,-0.0512 -0.42166,-0.085 -0.64464,-0.085 -1.49755,0 -2.72321,1.22566 -2.72321,2.72321 0,1.49755 1.22566,2.72321 2.72321,2.72321 1.49755,0 2.72321,-1.22577 2.72321,-2.72321 0,-0.51338 -0.15239,-0.98885 -0.40206,-1.39995 l 2.6913,-1.53817 0.43822,0.44464 c -0.96108,0.42166 -1.63818,1.38143 -1.63818,2.49348 0,1.49755 1.22566,2.72321 2.72321,2.72321 1.49755,0 2.72321,-1.22566 2.72321,-2.72321 0,-1.4116 -1.09299,-2.56799 -2.47213,-2.69772 l -0.79572,-0.79572 0,-1.95309 c 0,-0.30075 -0.24389,-0.54464 -0.54464,-0.54464 l -1.08929,0 z m -4.35713,4.35714 c 0.9089,0 1.63393,0.72513 1.63393,1.63392 0,0.90879 -0.72503,1.63393 -1.63393,1.63393 -0.9089,0 -1.63393,-0.72503 -1.63393,-1.63393 0,-0.9089 0.72503,-1.63392 1.63393,-1.63392 z m 6.48679,0.004 0.002,0 c 0.0326,0.003 0.0654,0.003 0.0978,0 0.88428,0.0271 1.58284,0.73832 1.58284,1.62968 0,0.9089 -0.72503,1.63393 -1.63393,1.63393 -0.9089,0 -1.63392,-0.72503 -1.63392,-1.63393 0,-0.89212 0.69975,-1.60364 1.58501,-1.62968 l 0,0 z" />
      <text
         id="text4154"
         y="508.07651"
         x="461.07144"
         style="font-style:normal;font-variant:normal;font-weight:normal;font-stretch:normal;line-height:0%;font-family:'Open Sans';-inkscape-font-specification:'Open Sans, Normal';text-align:end;letter-spacing:0px;word-spacing:0px;writing-mode:lr-tb;text-anchor:end;fill-opacity:1;stroke:none;stroke-width:1px;stroke-linecap:butt;stroke-linejoin:miter;stroke-opacity:1;fill:#ffffff;"
         xml:space="preserve"><tspan
           style="font-style:normal;font-variant:normal;font-weight:600;font-stretch:normal;font-size:14.0009px;line-height:125%;font-family:'Open Sans';-inkscape-font-specification:'Open Sans, Semi-Bold';text-align:end;writing-mode:lr-tb;text-anchor:end;fill:#ffffff;fill-opacity:1;"
           y="508.07651"
           x="461.07144"
           id="tspan4156"
           sodipodi:role="line">P</tspan></text>
    </g>
  </g>
</svg>
